<?xml version="1.0" encoding="utf-8"?>
<!-- Generator: Adobe Illustrator 23.0.3, SVG Export Plug-In . SVG Version: 6.00 Build 0)  -->
<svg version="1.1" id="Layer_1" xmlns="http://www.w3.org/2000/svg" xmlns:xlink="http://www.w3.org/1999/xlink" x="0px" y="0px"
	 viewBox="0 0 841.9 595.3" style="enable-background:new 0 0 841.9 595.3;" xml:space="preserve">
<style type="text/css">
	.st0{opacity:0.41;fill:#0FDBA6;enable-background:new    ;}
	.st1{fill:#20C3E8;}
	.st2{opacity:0.8;}
	.st3{fill:#23E5AD;}
	.st4{fill:#DD0E4E;stroke:#000000;stroke-miterlimit:10;}
	.st5{fill:#FFFFFF;}
	.st6{fill:none;}
	.st7{fill:#231F20;}
</style>
<path class="st0" d="M543,455.2H301c-6.6,0-12-5.4-12-12v-305c0-6.6,5.4-12,12-12h242c6.6,0,12,5.4,12,12v305
	C555,449.8,549.6,455.2,543,455.2z"/>
<g>
	<circle class="st1" cx="391" cy="256.8" r="36.2"/>
	<g>
		<g>
			<g>
				<g class="st2">
					<path class="st1" d="M391,286.3c0.6,0.3,1.5,0.6,2.6,0.8c0.6,0.2,1.1,0.2,1.7,0.2s1.3,0.1,2,0.1c2.7-0.2,5.9-0.8,9-2.1
						c3.1-1.3,6-3.2,8.5-5.4c0.6-0.6,1.2-1.1,1.7-1.6c0.6-0.5,1-1.1,1.5-1.6c1-1,1.7-2.1,2.5-2.9c0.6-0.7,0.9-1.4,1.3-2.1
						c0.4-0.6,0.8-1.3,1.1-1.9c0.3-0.6,0.6-1.2,0.9-1.7c0.2-0.6,0.6-1,0.7-1.5c0.2-0.4,0.2-0.5,0.2-0.2c-0.1,0.2-0.2,0.7-0.6,1.4
						s-0.8,1.6-1.3,2.6c-0.3,0.5-0.6,1-1,1.6c-0.2,0.3-0.4,0.6-0.6,0.9s-0.5,0.6-0.7,0.9c-0.4,0.6-0.8,1.1-1.2,1.7
						c-0.4,0.6-0.9,1.1-1.4,1.7c-0.2,0.3-0.5,0.6-0.8,0.9c-0.2,0.3-0.6,0.6-0.9,0.9c-0.6,0.6-1.2,1.2-1.9,1.7c1-0.6,2-1.2,2.9-1.8
						c0.9-0.6,1.8-1.3,2.7-2.1c1.7-1.4,3.2-2.8,4.3-4.2c0.3-0.6,0.6-1.1,0.9-1.7c0.2-0.6,0.5-1.2,0.7-1.7c0.2-0.6,0.5-1.2,0.7-1.7
						c0.2-0.6,0.4-1.2,0.6-1.8c1.6-5.5,1.8-11.2,0.8-16.7s-3.2-10.8-6.5-15.7c-0.6-0.9-1.4-1.9-2.5-3.1c-0.5-0.6-1-1.1-1.7-1.7
						c-0.6-0.6-1.2-1.2-1.8-1.7c-1.3-1-2.5-2.1-3.9-3c-0.6-0.5-1.2-0.9-1.7-1.3c-0.6-0.3-1.1-0.6-1.5-0.9c3.9,2,7.4,4.6,10.4,7.7
						c3,3.2,5.5,6.7,7.3,10.7c0.5,0.9,0.9,2,1.3,3l0.6,1.5c0.2,0.5,0.4,1,0.5,1.5l0.7,3.2l0.4,3.2c0.4,4.3,0.2,8.5-0.8,12.7
						c0.2-0.4,0.3-0.9,0.5-1.3c0.2-1.1,0.5-2.2,0.6-3.3l0.3-3.4c0-1.1,0-2.3,0-3.4c0-0.6-0.1-1.1-0.1-1.7l-0.2-1.7
						c-0.6-4.5-2-9-4-13.2c-0.4-0.7-0.8-1.3-1.2-2.1c-0.4-0.7-0.9-1.3-1.3-2.1c0.5,0.7,0.9,1.3,1.3,2.1l1.2,2.1
						c2,3.6,3.8,7.3,4.8,11.7c0.2,1.4,0.3,2.9,0.3,4.4c0,0.7-0.1,1.5-0.1,2.2s0,1.4-0.1,2.1c-0.1,1.1-0.3,2.2-0.6,3.2
						c-0.3,1-0.7,2.1-1,3l-0.2,0.9l-0.3,0.9l-0.6,1.9c-0.1,0.4-0.1,0.8-0.2,1.2c0,0,0,0,0.1-0.1c0.5-0.3,0.9-1.1,1.6-2.2
						c0.3-0.6,0.7-1.3,0.9-2.1c0.3-0.8,0.6-1.7,0.9-2.6c1.1-3.8,1.7-8.9,1.1-14.2c-0.6-5.3-2.4-10.6-4.7-14.5
						c-0.2-0.5-0.6-0.9-0.9-1.4s-0.6-0.9-0.9-1.3c-0.6-0.9-1.1-1.6-1.7-2.2c-1.1-1.3-1.9-2.3-2.6-2.8c-1-0.8-2.1-1.5-3.1-2.1
						c-1.1-0.6-2.3-1-3.4-1.6c-1.2-0.5-2.4-0.8-3.6-1.3c-0.6-0.2-1.2-0.4-1.8-0.6c-0.6-0.2-1.3-0.5-1.8-0.7
						c-0.8-0.4-1.6-0.7-2.3-1.1c-0.7-0.3-1.4-0.6-2.1-0.6c-0.2,0.2-0.9,0.3-1.7,0.3c-0.9-0.2-1.7-0.5-2.5-0.7
						c-0.9-0.2-1.7-0.5-2.5-0.6c-1.6-0.5-3.2-0.6-4.6-0.2c-0.9,0.1-2.7-0.9-4.5-2c-0.5-0.2-0.9-0.5-1.3-0.7s-0.8-0.3-1.1-0.5
						c-0.6-0.2-1.1-0.3-1.2-0.1c-0.6,1.8-0.6,2.1-1.1,1.9c-0.6-0.2-1.5-0.6-3.9-0.2c-0.3,0.1-0.8,0.5-1.3,1
						c-0.6,0.6-1.1,1.1-1.7,1.2c-2,0.2-3.1,0.9-4.1,1.7c-1.1,0.7-2.1,1.8-3.8,3.1c-2.4,2.2-4,3.2-5.5,4.4c-0.7,0.6-1.4,1.2-2.1,2
						c-0.3,0.4-0.6,0.9-0.9,1.4c-0.3,0.6-0.6,1.1-0.8,1.8c-0.1,0.2-0.4,0.8-0.8,1.6c-0.2,0.4-0.4,0.9-0.7,1.3
						c-0.2,0.5-0.4,1-0.6,1.6c-0.4,1-0.9,2.1-1,2.8c-0.2,0.8-0.4,1.3-0.4,1.3c-0.8,1.4-1.3,2.8-1.7,4.2c-0.1,0.3-0.2,0.6-0.3,0.9
						c-0.1,0.3-0.2,0.6-0.2,0.9c-0.2,0.6-0.2,1.3-0.4,1.8c-0.3,1.2-0.4,2.4-0.8,3.5c-0.2,0.6-0.4,1.2-0.6,1.7
						c-0.2,0.6-0.5,1.2-0.8,1.8c0.8,3,1,6.3,1.3,9.9c0.2,0.9,0.2,1.7,0.4,2.6c0.1,0.5,0.2,0.9,0.2,1.3c0.1,0.4,0.2,0.9,0.3,1.3
						c0.2,0.9,0.5,1.7,0.8,2.5s0.7,1.5,1.1,2.2c0.7,1.4,1.5,2.5,2,3.7s1,2.1,1.5,3.2c0.2,0.6,0.4,1,0.6,1.6s0.5,1,0.8,1.6
						c0.2,0.6,0.6,1.1,0.9,1.7s0.7,1.2,1.2,1.8c0.6,0.6,1.1,1.2,1.6,1.7s0.9,0.9,1.2,1.3c0.2,0.5,1.1,0.9,2,1.2
						c0.9,0.3,2,0.6,2.6,1.2l-0.9,0.6c0.5,0.4,1.3,1.1,1.9,1.4c0.5,0.3,0.2,0.6-0.1,0.7c-0.6,0.4-1.1,0.8-0.4,1.7
						c1,0.8,2.1,1.6,3.3,2.3c1.2,0.6,2.4,1.3,3.6,1.9c1.4,0.2,2.8,0.2,4.1,0.3c1.3,0.1,2.7-0.1,4-0.2c0.2-0.4,0.4-0.8,0.8-1.1
						c0.8-0.1,1.5-0.3,2.3-0.5c0.5-0.9,0.4-1.9,0.7-2.5c0.1-1.3,0.9-2.5,1.4-3.8c0.6-1.2,1-2.5,0.8-3.6c-0.1-0.3-0.9-0.6-2-0.9
						c-0.5-0.2-1-0.3-1.5-0.6c-0.5-0.3-0.9-0.6-1.2-0.9c-0.2-0.4,0.6-1.1,1-2c-1.7-0.2-1.6-1.3-0.8-2c-0.4-0.2-0.7-0.2-0.7-0.2
						c0.2-0.3,0.6-1.2,0.6-1.2c-0.2-0.1-0.5-0.2-0.6-0.3c-0.2-0.2-0.4-0.3-0.6-0.4c-0.4-0.3-0.9-0.6-1.3-0.9
						c-0.4-0.2-0.8-0.6-1.2-0.9c-0.4-0.3-0.8-0.6-1.2-0.9c-0.4-0.3-0.7-0.6-1.1-0.9s-0.8-0.5-1.1-0.8c-0.4-0.2-0.7-0.5-1.1-0.7
						s-0.9-0.3-1.3-0.5c-0.6-0.3-2.1-0.5-3-0.8c-0.5-0.2-0.9-1.1-1-1.4c-1,0.2-1.7,0.9-2.5,1.3c-0.3-0.7-0.8-1.5-1.1-2.5
						c-0.2-0.5-0.4-0.9-0.6-1.3c-0.2-0.5-0.4-0.9-0.6-1.3s-0.5-0.8-0.7-1.1c-0.2-0.3-0.5-0.6-0.7-0.8c-0.6-0.4-1.1-0.5-1.9-0.2
						c-0.1-0.3-0.2-0.6-0.4-0.7c-0.1-0.2-0.2-0.4-0.4-0.6c-0.2-0.3-0.6-0.6-0.9-0.9s-0.6-0.6-0.9-0.9c-0.2-0.4-0.5-0.9-0.7-1.5
						c-1.1-3.3-1.7-7.8-1.1-12.3c0.1-2.5,0.9-4.7,1.7-6.9c0.3-0.8,0.7-1.6,1-2.4c2-4,4.7-7.2,7.9-9.7c3.2-2.5,6.6-4.1,10.2-5.1
						s7.3-1.5,11.2-1.4c3.9,0.1,7.8,0.6,12,1.9c4.3,1.3,8.3,3.8,11.6,7.1c0.5,0.4,0.8,0.9,1.2,1.3l1.1,1.3c0.7,0.9,1.3,1.9,2,2.9
						c0.6,1,1.1,2.1,1.6,3.1c0.4,1.1,0.9,2.1,1.2,3.2c1.3,4.4,1.5,9,0.8,13.3s-2.3,8.2-4.4,11.4c-2.1,3.2-4.8,5.8-7.4,7.7
						c-0.3,0.2-0.6,0.5-0.9,0.7s-0.7,0.4-1,0.6c-0.7,0.4-1.3,0.8-2,1.1c-1.3,0.6-2.6,1.2-3.9,1.5c-4.9,1.6-8.7,1.3-10.7,1.3
						L391,286.3z"/>
				</g>
			</g>
		</g>
	</g>
</g>
<g>
	<circle class="st3" cx="390.9" cy="256.7" r="40.7"/>
	<g>
		<g>
			<g>
				<g class="st2">
					<path class="st3" d="M390.9,289.9c0.7,0.3,1.7,0.7,2.9,0.9c0.7,0.2,1.2,0.2,1.9,0.2c0.7,0,1.5,0.1,2.2,0.1
						c3-0.2,6.6-0.9,10.1-2.4c3.5-1.5,6.7-3.6,9.6-6.1c0.7-0.7,1.3-1.2,1.9-1.8c0.7-0.6,1.1-1.2,1.7-1.8c1.1-1.1,1.9-2.4,2.8-3.3
						c0.7-0.8,1-1.6,1.5-2.4c0.4-0.7,0.9-1.5,1.2-2.1c0.3-0.7,0.7-1.3,1-1.9c0.2-0.7,0.7-1.1,0.8-1.7c0.2-0.4,0.2-0.6,0.2-0.2
						c-0.1,0.2-0.2,0.8-0.7,1.6c-0.4,0.8-0.9,1.8-1.5,2.9c-0.3,0.6-0.7,1.1-1.1,1.8c-0.2,0.3-0.4,0.7-0.7,1c-0.2,0.3-0.6,0.7-0.8,1
						c-0.4,0.7-0.9,1.2-1.3,1.9c-0.4,0.7-1,1.2-1.6,1.9c-0.2,0.3-0.6,0.7-0.9,1c-0.2,0.3-0.7,0.7-1,1c-0.7,0.7-1.3,1.3-2.1,1.9
						c1.1-0.7,2.2-1.3,3.3-2s2-1.5,3-2.4c1.9-1.6,3.6-3.1,4.8-4.7c0.3-0.7,0.7-1.2,1-1.9c0.2-0.7,0.6-1.3,0.8-1.9
						c0.2-0.7,0.6-1.3,0.8-1.9c0.2-0.7,0.4-1.3,0.7-2c1.8-6.2,2-12.6,0.9-18.8c-1.1-6.2-3.6-12.1-7.3-17.7c-0.7-1-1.6-2.1-2.8-3.5
						c-0.6-0.7-1.1-1.2-1.9-1.9c-0.7-0.7-1.3-1.3-2-1.9c-1.5-1.1-2.8-2.4-4.4-3.4c-0.7-0.6-1.3-1-1.9-1.5c-0.7-0.3-1.2-0.7-1.7-1
						c4.4,2.2,8.3,5.2,11.7,8.7c3.4,3.6,6.2,7.5,8.2,12c0.6,1,1,2.2,1.5,3.4l0.7,1.7c0.2,0.6,0.4,1.1,0.6,1.7l0.8,3.6l0.4,3.6
						c0.4,4.8,0.2,9.6-0.9,14.3c0.2-0.4,0.3-1,0.6-1.5c0.2-1.2,0.6-2.5,0.7-3.7l0.3-3.8c0-1.2,0-2.6,0-3.8c0-0.7-0.1-1.2-0.1-1.9
						l-0.2-1.9c-0.7-5.1-2.2-10.1-4.5-14.8c-0.4-0.8-0.9-1.5-1.3-2.4c-0.4-0.8-1-1.5-1.5-2.4c0.6,0.8,1,1.5,1.5,2.4l1.3,2.4
						c2.2,4,4.3,8.2,5.4,13.2c0.2,1.6,0.3,3.3,0.3,4.9c0,0.8-0.1,1.7-0.1,2.5s0,1.6-0.1,2.4c-0.1,1.2-0.3,2.5-0.7,3.6
						c-0.3,1.1-0.8,2.4-1.1,3.4l-0.2,1l-0.3,1l-0.7,2.1c-0.1,0.4-0.1,0.9-0.2,1.3c0,0,0,0,0.1-0.1c0.6-0.3,1-1.2,1.8-2.5
						c0.3-0.7,0.8-1.5,1-2.4c0.3-0.9,0.7-1.9,1-2.9c1.2-4.3,1.9-10,1.2-16c-0.7-6-2.7-11.9-5.3-16.3c-0.2-0.6-0.7-1-1-1.6
						c-0.3-0.6-0.7-1-1-1.5c-0.7-1-1.2-1.8-1.9-2.5c-1.2-1.5-2.1-2.6-2.9-3.1c-1.1-0.9-2.4-1.7-3.5-2.4c-1.2-0.7-2.6-1.1-3.8-1.8
						c-1.3-0.6-2.7-0.9-4-1.5c-0.7-0.2-1.3-0.4-2-0.7c-0.7-0.2-1.5-0.6-2-0.8c-0.9-0.4-1.8-0.8-2.6-1.2c-0.8-0.3-1.6-0.7-2.4-0.7
						c-0.2,0.2-1,0.3-1.9,0.3c-1-0.2-1.9-0.6-2.8-0.8c-1-0.2-1.9-0.6-2.8-0.7c-1.8-0.6-3.6-0.7-5.2-0.2c-1,0.1-3-1-5.1-2.2
						c-0.6-0.2-1-0.6-1.5-0.8s-0.9-0.3-1.2-0.6c-0.7-0.2-1.2-0.3-1.3-0.1c-0.7,2-0.7,2.4-1.2,2.1c-0.7-0.2-1.7-0.7-4.4-0.2
						c-0.3,0.1-0.9,0.6-1.5,1.1c-0.7,0.7-1.2,1.2-1.9,1.3c-2.2,0.2-3.5,1-4.6,1.9c-1.2,0.8-2.4,2-4.3,3.5c-2.7,2.5-4.5,3.6-6.2,4.9
						c-0.8,0.7-1.6,1.3-2.4,2.2c-0.3,0.4-0.7,1-1,1.6c-0.3,0.7-0.7,1.2-0.9,2c-0.1,0.2-0.4,0.9-0.9,1.8c-0.2,0.4-0.4,1-0.8,1.5
						c-0.2,0.6-0.4,1.1-0.7,1.8c-0.4,1.1-1,2.4-1.1,3.1c-0.2,0.9-0.4,1.5-0.4,1.5c-0.9,1.6-1.5,3.1-1.9,4.7c-0.1,0.3-0.2,0.7-0.3,1
						c-0.1,0.3-0.2,0.7-0.2,1c-0.2,0.7-0.2,1.5-0.4,2c-0.3,1.3-0.4,2.7-0.9,3.9c-0.2,0.7-0.4,1.3-0.7,1.9c-0.2,0.7-0.6,1.3-0.9,2
						c0.9,3.4,1.1,7.1,1.5,11.1c0.2,1,0.2,1.9,0.4,2.9c0.1,0.6,0.2,1,0.2,1.5c0.1,0.4,0.2,1,0.3,1.5c0.2,1,0.6,1.9,0.9,2.8
						c0.3,0.9,0.8,1.7,1.2,2.5c0.8,1.6,1.7,2.8,2.2,4.2c0.6,1.3,1.1,2.4,1.7,3.6c0.2,0.7,0.4,1.1,0.7,1.8c0.2,0.7,0.6,1.1,0.9,1.8
						c0.2,0.7,0.7,1.2,1,1.9c0.3,0.7,0.8,1.3,1.3,2c0.7,0.7,1.2,1.3,1.8,1.9s1,1,1.3,1.5c0.2,0.6,1.2,1,2.2,1.3
						c1,0.3,2.2,0.7,2.9,1.3l-1,0.7c0.6,0.4,1.5,1.2,2.1,1.6c0.6,0.3,0.2,0.7-0.1,0.8c-0.7,0.4-1.2,0.9-0.4,1.9
						c1.1,0.9,2.4,1.8,3.7,2.6c1.3,0.7,2.7,1.5,4,2.1c1.6,0.2,3.1,0.2,4.6,0.3c1.5,0.1,3-0.1,4.5-0.2c0.2-0.4,0.4-0.9,0.9-1.2
						c0.9-0.1,1.7-0.3,2.6-0.6c0.6-1,0.4-2.1,0.8-2.8c0.1-1.5,1-2.8,1.6-4.3c0.7-1.3,1.1-2.8,0.9-4c-0.1-0.3-1-0.7-2.2-1
						c-0.6-0.2-1.1-0.3-1.7-0.7c-0.6-0.3-1-0.7-1.3-1c-0.2-0.4,0.7-1.2,1.1-2.2c-1.9-0.2-1.8-1.5-0.9-2.2c-0.4-0.2-0.8-0.2-0.8-0.2
						c0.2-0.3,0.7-1.3,0.7-1.3c-0.2-0.1-0.6-0.2-0.7-0.3c-0.2-0.2-0.4-0.3-0.7-0.4c-0.4-0.3-1-0.7-1.5-1c-0.4-0.2-0.9-0.7-1.3-1
						c-0.4-0.3-0.9-0.7-1.3-1c-0.4-0.3-0.8-0.7-1.2-1c-0.4-0.3-0.9-0.6-1.2-0.9c-0.4-0.2-0.8-0.6-1.2-0.8c-0.4-0.2-1-0.3-1.5-0.6
						c-0.7-0.3-2.4-0.6-3.4-0.9c-0.6-0.2-1-1.2-1.1-1.6c-1.1,0.2-1.9,1-2.8,1.5c-0.3-0.8-0.9-1.7-1.2-2.8c-0.2-0.6-0.4-1-0.7-1.5
						c-0.2-0.6-0.4-1-0.7-1.5c-0.2-0.4-0.6-0.9-0.8-1.2c-0.2-0.3-0.6-0.7-0.8-0.9c-0.7-0.4-1.2-0.6-2.1-0.2
						c-0.1-0.3-0.2-0.7-0.4-0.8c-0.1-0.2-0.2-0.4-0.4-0.7c-0.2-0.3-0.7-0.7-1-1c-0.3-0.3-0.7-0.7-1-1c-0.2-0.4-0.6-1-0.8-1.7
						c-1.2-3.7-1.9-8.8-1.2-13.8c0.1-2.8,1-5.3,1.9-7.8c0.3-0.9,0.8-1.8,1.1-2.7c2.2-4.5,5.3-8.1,8.9-10.9c3.6-2.8,7.4-4.6,11.5-5.7
						c4-1.1,8.2-1.7,12.6-1.6c4.4,0.1,8.8,0.7,13.5,2.1c4.8,1.5,9.3,4.3,13,8c0.6,0.4,0.9,1,1.3,1.5l1.2,1.5c0.8,1,1.5,2.1,2.2,3.3
						c0.7,1.1,1.2,2.4,1.8,3.5c0.4,1.2,1,2.4,1.3,3.6c1.5,4.9,1.7,10.1,0.9,15c-0.8,4.8-2.6,9.2-4.9,12.8c-2.4,3.6-5.4,6.5-8.3,8.7
						c-0.3,0.2-0.7,0.6-1,0.8c-0.3,0.2-0.8,0.4-1.1,0.7c-0.8,0.4-1.5,0.9-2.2,1.2c-1.5,0.7-2.9,1.3-4.4,1.7c-5.5,1.8-9.8,1.5-12,1.5
						L390.9,289.9z"/>
				</g>
			</g>
		</g>
	</g>
</g>
<path class="st4" d="M342.2,439.7L342.2,439.7z"/>
<g>
	<g>
		<polygon class="st5" points="321.4,285.6 321.4,326.3 305,326.3 305,255.2 317.8,255.2 350.9,297 350.9,255.2 367.4,255.2 
			367.4,326.3 354.2,326.3 		"/>
		<g>
			<g>
				<g>
					<g>
						<g>
							<rect x="282.5" y="277.7" class="st6" width="45" height="26.1"/>
						</g>
						<g>
							<rect x="302.7" y="283.7" class="st7" width="4.5" height="14.1"/>
						</g>
						<rect x="302.7" y="299.9" class="st7" width="4.5" height="2.8"/>
						<rect x="302.7" y="278.8" class="st7" width="4.5" height="2.8"/>
					</g>
				</g>
				<g>
					<g>
						<g>
							<rect x="344.9" y="277.7" class="st6" width="45" height="26.1"/>
						</g>
						<g>
							<rect x="365.2" y="283.7" class="st7" width="4.5" height="14.1"/>
						</g>
						<rect x="365.1" y="278.8" class="st7" width="4.5" height="2.8"/>
						<rect x="365.1" y="299.8" class="st7" width="4.5" height="2.8"/>
					</g>
				</g>
				<g>
					<polygon class="st7" points="307.2,306.2 302.7,306.2 302.7,328.6 325.2,328.6 325.2,324 307.2,324 					"/>
				</g>
				<g>
					<polygon class="st7" points="325,257.4 325,252.9 302.7,252.9 302.7,275.4 307.2,275.4 307.2,257.4 					"/>
				</g>
				<g>
					<polygon class="st7" points="322.1,264.1 325.6,261.4 318.9,252.9 308,252.9 308,257.4 312.4,257.4 314.6,257.4 315.7,257.4 
						316.2,257.4 316.5,257.4 316.6,257.4 316.7,257.4 316.7,257.4 316.7,257.4 316.7,257.4 316.7,257.4 316.7,257.4 316.8,257.4 
											"/>
				</g>
				<g>
					<polygon class="st7" points="348.7,239.3 353.2,239.3 353.2,303.5 313,252.8 316.6,250 348.7,290.6 					"/>
				</g>
				<g>
					<polygon class="st7" points="371,257.4 371,252.9 348.7,252.9 348.7,275.4 353.2,275.4 353.2,257.4 					"/>
				</g>
				<g>
					<polygon class="st7" points="365.2,275.3 369.7,275.3 369.7,252.9 347.1,252.9 347.1,257.4 365.2,257.4 					"/>
				</g>
				<g>
					<polygon class="st7" points="347.3,324.1 347.3,328.6 369.7,328.6 369.7,306 365.2,306 365.2,324.1 					"/>
				</g>
				<g>
					<polygon class="st7" points="349.8,317.4 346.3,320.2 353.1,328.6 363.9,328.6 363.9,324 359.5,324 357.4,324 356.3,324 
						355.8,324 355.5,324 355.4,324 355.3,324 355.3,324 355.2,324 355.2,324 355.2,324 355.2,324.1 355.2,324.1 					"/>
				</g>
				<g>
					<polygon class="st7" points="323.6,342.6 319.1,342.6 319.1,279.1 359.2,328.9 355.7,331.7 323.6,291.9 					"/>
				</g>
				<g>
					<polygon class="st7" points="301.3,324.1 301.3,328.6 323.7,328.6 323.7,306 319.2,306 319.2,324.1 					"/>
				</g>
			</g>
		</g>
	</g>
	<g>
		<rect x="381" y="255.2" class="st5" width="16.4" height="71.1"/>
		<g>
			<g>
				<g>
					<g>
						<g>
							<rect x="374.9" y="277.7" class="st6" width="45" height="26.1"/>
						</g>
						<g>
							<rect x="395.2" y="283.7" class="st7" width="4.5" height="14.1"/>
						</g>
						<rect x="395.2" y="278.8" class="st7" width="4.5" height="2.8"/>
						<rect x="395.2" y="299.8" class="st7" width="4.5" height="2.8"/>
					</g>
				</g>
				<g>
					<g>
						<g>
							<rect x="358.5" y="277.7" class="st6" width="45" height="26.1"/>
						</g>
						<g>
							<rect x="378.7" y="283.7" class="st7" width="4.5" height="14.1"/>
						</g>
						<rect x="378.8" y="299.9" class="st7" width="4.5" height="2.8"/>
						<rect x="378.8" y="278.8" class="st7" width="4.5" height="2.8"/>
					</g>
				</g>
				<g>
					<polygon class="st7" points="395.2,275.3 399.7,275.3 399.7,252.9 377.2,252.9 377.2,257.4 395.2,257.4 					"/>
				</g>
				<g>
					<polygon class="st7" points="377.4,324.1 377.4,328.6 399.7,328.6 399.7,306 395.2,306 395.2,324.1 					"/>
				</g>
				<g>
					<polygon class="st7" points="383.2,306.2 378.7,306.2 378.7,328.6 401.3,328.6 401.3,324 383.2,324 					"/>
				</g>
				<g>
					<polygon class="st7" points="401.1,257.4 401.1,252.9 378.7,252.9 378.7,275.4 383.2,275.4 383.2,257.4 					"/>
				</g>
			</g>
		</g>
	</g>
	<g>
		<polygon class="st5" points="412,326.3 412,255.2 428.5,255.2 428.5,285.8 454.6,255.2 473,255.2 446.4,287 474.9,326.3 
			456.2,326.3 436,297.6 428.6,305.3 428.6,326.2 412,326.2 		"/>
		<g>
			<g>
				<g>
					<g>
						<g>
							<rect x="389.5" y="277.7" class="st6" width="45" height="48.6"/>
						</g>
						<g>
							<rect x="409.8" y="288.9" class="st7" width="4.5" height="26.2"/>
						</g>
						<rect x="409.8" y="319" class="st7" width="4.5" height="5.2"/>
						<rect x="409.8" y="279.8" class="st7" width="4.5" height="5.2"/>
					</g>
				</g>
				<g>
					<polygon class="st7" points="426.3,275.3 430.8,275.3 430.8,252.9 408.2,252.9 408.2,257.4 426.3,257.4 					"/>
				</g>
				<g>
					<polygon class="st7" points="462.2,242.8 465.6,245.7 426.2,292.1 426.2,230.7 430.7,230.7 430.7,279.8 					"/>
				</g>
				<g>
					<polygon class="st7" points="463.9,257.4 463.9,252.9 453.5,252.9 446.8,260.8 450.2,263.8 452.9,260.6 454.3,259 454.9,258.2 
						455.3,257.8 455.5,257.6 455.5,257.5 455.6,257.4 455.6,257.4 455.6,257.4 455.6,257.4 455.6,257.4 455.6,257.4 455.6,257.4 
											"/>
				</g>
				<g>
					<polygon class="st7" points="443.7,286.7 447.2,289.6 477.9,252.9 429.6,252.9 429.6,257.4 468.3,257.4 					"/>
				</g>
				<g>
					<polygon class="st7" points="457.4,298.3 453.7,301 443.5,286.9 454.8,273.4 458.3,276.3 449.2,287.1 					"/>
				</g>
				<g>
					<polygon class="st7" points="435.5,324.1 435.5,328.6 479.3,328.6 453.5,292.8 449.8,295.4 470.5,324.1 					"/>
				</g>
				<g>
					<polygon class="st7" points="452,316.5 448.3,319.1 455,328.6 466.7,328.6 466.7,324 457.3,324.1 					"/>
				</g>
				<g>
					<polygon class="st7" points="420.7,316.6 417.5,313.5 436.3,294 452,316.3 448.3,318.9 435.7,301.1 					"/>
				</g>
				<g>
					<polygon class="st7" points="430.8,313.4 426.3,313.4 426.3,304.3 432.7,297.8 435.9,300.9 433.4,303.5 432.1,304.9 
						431.5,305.5 431.2,305.8 431,306 430.9,306.1 430.9,306.1 430.9,306.1 430.8,306.2 430.8,306.2 430.8,306.2 430.8,306.2 
						430.8,306.2 					"/>
				</g>
				<g>
					<polygon class="st7" points="408.5,324 408.5,328.5 430.9,328.5 430.9,305.9 426.4,305.9 426.4,324 					"/>
				</g>
				<g>
					<polygon class="st7" points="414.2,346.2 409.7,346.2 409.7,323.9 432.3,323.9 432.3,328.4 414.2,328.4 					"/>
				</g>
				<g>
					<polygon class="st7" points="432.1,257.4 432.1,252.9 409.8,252.9 409.8,275.4 414.3,275.4 414.3,257.4 					"/>
				</g>
			</g>
		</g>
	</g>
	<g>
		<path class="st5" d="M506.3,255.2h14.8l26,71.1h-16.8l-5.6-16h-22.1l-5.4,16h-16.8L506.3,255.2z M522,298.9l-8.3-25.1l-8.5,25.1
			H522z"/>
		<g>
			<path class="st6" d="M506.3,255.2h14.8l26,71.1h-16.8l-5.6-16h-22.1l-5.4,16h-16.8L506.3,255.2z M522,298.9l-8.3-25.1l-8.5,25.1
				H522z"/>
			<g>
				<g>
					<polygon class="st7" points="533.3,296.7 533.3,301.2 502,301.2 512.2,271.4 516.5,272.9 508.3,296.7 					"/>
				</g>
				<g>
					<polygon class="st7" points="511.2,273.3 515.5,271.8 525.2,301.2 494,301.2 494,296.7 519,296.7 					"/>
				</g>
				<g>
					<polygon class="st7" points="496.5,331.3 492.3,329.9 513.8,266.6 534.9,330.6 530.6,332 513.7,280.9 					"/>
				</g>
			</g>
			<g>
				<g>
					<g>
						<g>
							
								<rect x="508.8" y="269.1" transform="matrix(0.9393 -0.3431 0.3431 0.9393 -64.8423 199.4555)" class="st6" width="45" height="27.8"/>
						</g>
						<g>
							
								<rect x="529.1" y="275.5" transform="matrix(0.9393 -0.3431 0.3431 0.9393 -64.8379 199.4585)" class="st7" width="4.5" height="15"/>
						</g>
						
							<rect x="525.2" y="271" transform="matrix(0.9393 -0.3431 0.3431 0.9393 -61.4551 197.4825)" class="st7" width="4.5" height="3"/>
						
							<rect x="532.9" y="292" transform="matrix(0.9393 -0.3431 0.3431 0.9393 -68.2243 201.4056)" class="st7" width="4.5" height="3"/>
					</g>
				</g>
				<g>
					<g>
						<g>
							
								<rect x="482.3" y="260.5" transform="matrix(0.3431 -0.9393 0.9393 0.3431 60.1302 651.9896)" class="st6" width="27.8" height="45"/>
						</g>
						<g>
							
								<rect x="488.7" y="280.8" transform="matrix(0.3431 -0.9393 0.9393 0.3431 60.1185 651.9756)" class="st7" width="15" height="4.5"/>
						</g>
						
							<rect x="490.8" y="291.3" transform="matrix(0.3431 -0.9393 0.9393 0.3431 47.6755 655.3261)" class="st7" width="3" height="4.5"/>
						
							<rect x="498.5" y="270.2" transform="matrix(0.3431 -0.9393 0.9393 0.3431 72.5519 648.7045)" class="st7" width="3" height="4.5"/>
					</g>
				</g>
				<g>
					<polygon class="st7" points="518.4,324.1 518.4,328.6 550.4,328.6 539.4,298.3 535.1,299.8 544,324.1 					"/>
				</g>
				<g>
					<polygon class="st7" points="527.7,312.1 523.5,313.6 528.7,328.6 544.7,328.6 544.7,324 531.9,324.1 					"/>
				</g>
				<g>
					<polygon class="st7" points="510.5,312.5 510.5,308 526.4,308 531.7,323.2 527.4,324.7 523.2,312.5 					"/>
				</g>
				<g>
					<polygon class="st7" points="500.1,324.6 495.8,323.2 501,308 517.1,308 517.1,312.6 504.2,312.5 					"/>
				</g>
				<g>
					<polygon class="st7" points="482.8,324.1 482.8,328.6 498.8,328.6 504,313.3 499.8,311.8 495.6,324.1 					"/>
				</g>
				<g>
					<polygon class="st7" points="492.3,300.1 488.1,298.5 477.1,328.6 509.4,328.6 509.4,324 483.5,324 					"/>
				</g>
				<g>
					<polygon class="st7" points="520.4,257.4 520.4,252.9 504.7,252.9 499.3,267.7 503.6,269.3 507.9,257.4 					"/>
				</g>
				<g>
					<polygon class="st7" points="523.9,269.1 528.2,267.6 522.8,252.9 507,252.9 507,257.4 519.7,257.4 					"/>
				</g>
			</g>
		</g>
	</g>
</g>
</svg>
